{
    "asset" : {
        "generator" : "Khronos glTF Blender I/O v1.0.5",
        "version" : "2.0"
    },
    "scene" : 0,
    "scenes" : [
        {
            "name" : "Scene",
            "nodes" : [
                0
            ]
        }
    ],
    "nodes" : [
        {
            "mesh" : 0,
            "name" : "Glass",
            "scale" : [
                0.22188085317611694,
                0.22188085317611694,
                0.22188085317611694
            ],
            "translation" : [
                -1.0474954843521118,
                -0.8885975480079651,
                -0.027008697390556335
            ]
        }
    ],
    "materials" : [
        {
            "doubleSided" : true,
            "name" : "Material.001",
            "pbrMetallicRoughness" : {
                "baseColorTexture" : {
                    "index" : 0,
                    "texCoord" : 0
                },
                "metallicFactor" : 0,
                "roughnessFactor" : 0.5
            }
        }
    ],
    "meshes" : [
        {
            "name" : "Sphere.001",
            "primitives" : [
                {
                    "attributes" : {
                        "POSITION" : 0,
                        "NORMAL" : 1,
                        "TEXCOORD_0" : 2
                    },
                    "indices" : 3,
                    "material" : 0
                }
            ]
        }
    ],
    "textures" : [
        {
            "source" : 0
        }
    ],
    "images" : [
        {
            "bufferView" : 4,
            "mimeType" : "image/png",
            "name" : "flaskDiffuse-flaskTransparentV4"
        }
    ],
    "accessors" : [
        {
            "bufferView" : 0,
            "componentType" : 5126,
            "count" : 1674,
            "max" : [
                1.2358427047729492,
                3.0960044860839844,
                0.9960784316062927
            ],
            "min" : [
                -1.2592332363128662,
                -1.0890693664550781,
                -1.2907195091247559
            ],
            "type" : "VEC3"
        },
        {
            "bufferView" : 1,
            "componentType" : 5126,
            "count" : 1674,
            "type" : "VEC3"
        },
        {
            "bufferView" : 2,
            "componentType" : 5126,
            "count" : 1674,
            "type" : "VEC2"
        },
        {
            "bufferView" : 3,
            "componentType" : 5123,
            "count" : 2124,
            "type" : "SCALAR"
        }
    ],
    "bufferViews" : [
        {
            "buffer" : 0,
            "byteLength" : 20088,
            "byteOffset" : 0
        },
        {
            "buffer" : 0,
            "byteLength" : 20088,
            "byteOffset" : 20088
        },
        {
            "buffer" : 0,
            "byteLength" : 13392,
            "byteOffset" : 40176
        },
        {
            "buffer" : 0,
            "byteLength" : 4248,
            "byteOffset" : 53568
        },
        {
            "buffer" : 0,
            "byteLength" : 34661,
            "byteOffset" : 57816
        }
    ],
    "buffers" : [
        {
            "byteLength" : 92480,
            "uri" : "data:application/octet-stream;base64,"
        }
    ]
}
