{
    "asset" : {
        "generator" : "Khronos glTF Blender I/O v1.0.5",
        "version" : "2.0"
    },
    "scene" : 0,
    "scenes" : [
        {
            "name" : "Scene",
            "nodes" : [
                0
            ]
        }
    ],
    "nodes" : [
        {
            "mesh" : 0,
            "name" : "Glass",
            "rotation" : [
                0.7071068286895752,
                0,
                0,
                0.7071067094802856
            ],
            "scale" : [
                0.22188085317611694,
                0.22188088297843933,
                0.22188088297843933
            ],
            "translation" : [
                0.015674233436584473,
                -0.18031546473503113,
                -0.027008820325136185
            ]
        }
    ],
    "materials" : [
        {
            "doubleSided" : true,
            "name" : "Material.001",
            "pbrMetallicRoughness" : {
                "baseColorTexture" : {
                    "index" : 0,
                    "texCoord" : 0
                },
                "metallicFactor" : 0,
                "roughnessFactor" : 0.5
            }
        }
    ],
    "meshes" : [
        {
            "name" : "Sphere.003",
            "primitives" : [
                {
                    "attributes" : {
                        "POSITION" : 0,
                        "NORMAL" : 1,
                        "TEXCOORD_0" : 2
                    },
                    "indices" : 3,
                    "material" : 0
                }
            ]
        }
    ],
    "textures" : [
        {
            "source" : 0
        }
    ],
    "images" : [
        {
            "bufferView" : 4,
            "mimeType" : "image/png",
            "name" : "Image_0"
        }
    ],
    "accessors" : [
        {
            "bufferView" : 0,
            "componentType" : 5126,
            "count" : 1914,
            "max" : [
                1.2358427047729492,
                0.9960784316062927,
                1.0890693664550781
            ],
            "min" : [
                -1.2592332363128662,
                -1.2907195091247559,
                -3.0960044860839844
            ],
            "type" : "VEC3"
        },
        {
            "bufferView" : 1,
            "componentType" : 5126,
            "count" : 1914,
            "type" : "VEC3"
        },
        {
            "bufferView" : 2,
            "componentType" : 5126,
            "count" : 1914,
            "type" : "VEC2"
        },
        {
            "bufferView" : 3,
            "componentType" : 5123,
            "count" : 2124,
            "type" : "SCALAR"
        }
    ],
    "bufferViews" : [
        {
            "buffer" : 0,
            "byteLength" : 22968,
            "byteOffset" : 0
        },
        {
            "buffer" : 0,
            "byteLength" : 22968,
            "byteOffset" : 22968
        },
        {
            "buffer" : 0,
            "byteLength" : 15312,
            "byteOffset" : 45936
        },
        {
            "buffer" : 0,
            "byteLength" : 4248,
            "byteOffset" : 61248
        },
        {
            "buffer" : 0,
            "byteLength" : 101915,
            "byteOffset" : 65496
        }
    ],
    "buffers" : [
        {
            "byteLength" : 167412,
            "uri" : "data:application/octet-stream;base64,"
        }
    ]
}
