{
  "accessors": [
    {
      "bufferView": 2,
      "componentType": 5126,
      "count": 346,
      "max": [
        1.0000002384185791,
        -0.051035132259130478,
        0.88733780384063721
      ],
      "min": [
        -0.99999982118606567,
        -1.0000003576278687,
        -1
      ],
      "type": "VEC3"
    },
    {
      "bufferView": 2,
      "byteOffset": 4152,
      "componentType": 5126,
      "count": 346,
      "max": [
        0.99075746536254883,
        0.99922889471054077,
        0.88395822048187256
      ],
      "min": [
        -0.99075764417648315,
        -1,
        -0.99486744403839111
      ],
      "type": "VEC3"
    },
    {
      "bufferView": 3,
      "componentType": 5126,
      "count": 346,
      "max": [
        0.98335504531860352,
        0.99556440114974976,
        0.99997437000274658,
        1
      ],
      "min": [
        -0.99146014451980591,
        -0.60186821222305298,
        -0.83334225416183472,
        1
      ],
      "type": "VEC4"
    },
    {
      "bufferView": 3,
      "byteOffset": 5536,
      "componentType": 5126,
      "count": 346,
      "max": [
        0.99607843160629272,
        0.99607843160629272,
        0.99607843160629272,
        1
      ],
      "min": [
        0,
        0,
        0,
        1
      ],
      "type": "VEC4"
    },
    {
      "bufferView": 1,
      "componentType": 5126,
      "count": 346,
      "max": [
        0.99999994039535522,
        0.99340617656707764
      ],
      "min": [
        0,
        0
      ],
      "type": "VEC2"
    },
    {
      "bufferView": 0,
      "componentType": 5125,
      "count": 1464,
      "max": [
        345
      ],
      "min": [
        0
      ],
      "type": "SCALAR"
    },
    {
      "bufferView": 2,
      "byteOffset": 8304,
      "componentType": 5126,
      "count": 1116,
      "max": [
        0.95467251539230347,
        0.46766966581344604,
        0.88733780384063721
      ],
      "min": [
        -0.95467209815979004,
        -0.45111742615699768,
        -1.0229532718658447
      ],
      "type": "VEC3"
    },
    {
      "bufferView": 2,
      "byteOffset": 21696,
      "componentType": 5126,
      "count": 1116,
      "max": [
        1,
        1,
        1
      ],
      "min": [
        -1,
        -1,
        -1
      ],
      "type": "VEC3"
    },
    {
      "bufferView": 3,
      "byteOffset": 11072,
      "componentType": 5126,
      "count": 1116,
      "max": [
        0.99158751964569092,
        1,
        0.99997413158416748,
        1
      ],
      "min": [
        -0.99770236015319824,
        -1,
        -0.98151326179504395,
        1
      ],
      "type": "VEC4"
    },
    {
      "bufferView": 3,
      "byteOffset": 28928,
      "componentType": 5126,
      "count": 1116,
      "max": [
        1,
        1,
        1,
        1
      ],
      "min": [
        0,
        0,
        0,
        1
      ],
      "type": "VEC4"
    },
    {
      "bufferView": 1,
      "byteOffset": 2768,
      "componentType": 5126,
      "count": 1116,
      "max": [
        0.91928613185882568,
        0.9744575023651123
      ],
      "min": [
        0.082162708044052124,
        0
      ],
      "type": "VEC2"
    },
    {
      "bufferView": 0,
      "byteOffset": 5856,
      "componentType": 5125,
      "count": 3162,
      "max": [
        1115
      ],
      "min": [
        0
      ],
      "type": "SCALAR"
    },
    {
      "bufferView": 2,
      "byteOffset": 35088,
      "componentType": 5126,
      "count": 346,
      "max": [
        1.0000002384185791,
        1.0166610479354858,
        0.88733780384063721
      ],
      "min": [
        -0.99999982118606567,
        0.067696720361709595,
        -1
      ],
      "type": "VEC3"
    },
    {
      "bufferView": 2,
      "byteOffset": 39240,
      "componentType": 5126,
      "count": 346,
      "max": [
        0.99075758457183838,
        1,
        0.88403439521789551
      ],
      "min": [
        -0.9907572865486145,
        -0.99925076961517334,
        -0.99486744403839111
      ],
      "type": "VEC3"
    },
    {
      "bufferView": 3,
      "byteOffset": 46784,
      "componentType": 5126,
      "count": 346,
      "max": [
        0.991474449634552,
        0.60172563791275024,
        0.99997407197952271,
        1
      ],
      "min": [
        -0.98336106538772583,
        -0.9955475926399231,
        -0.83334243297576904,
        1
      ],
      "type": "VEC4"
    },
    {
      "bufferView": 3,
      "byteOffset": 52320,
      "componentType": 5126,
      "count": 346,
      "max": [
        1,
        1,
        1,
        1
      ],
      "min": [
        0,
        0,
        0,
        1
      ],
      "type": "VEC4"
    },
    {
      "bufferView": 1,
      "byteOffset": 11696,
      "componentType": 5126,
      "count": 346,
      "max": [
        0.87339407205581665,
        1
      ],
      "min": [
        0,
        0
      ],
      "type": "VEC2"
    },
    {
      "bufferView": 0,
      "byteOffset": 18504,
      "componentType": 5125,
      "count": 1464,
      "max": [
        345
      ],
      "min": [
        0
      ],
      "type": "SCALAR"
    },
    {
      "bufferView": 2,
      "byteOffset": 43392,
      "componentType": 5126,
      "count": 68,
      "max": [
        0.070802204310894012,
        0.081719093024730682,
        0.32879579067230225
      ],
      "min": [
        -0.071314901113510132,
        -0.065166555345058441,
        0.31901821494102478
      ],
      "type": "VEC3"
    },
    {
      "bufferView": 2,
      "byteOffset": 44208,
      "componentType": 5126,
      "count": 68,
      "max": [
        0.35851079225540161,
        0.34937402606010437,
        0.98213440179824829
      ],
      "min": [
        -0.35851109027862549,
        -0.34937399625778198,
        0.93327194452285767
      ],
      "type": "VEC3"
    },
    {
      "bufferView": 3,
      "byteOffset": 57856,
      "componentType": 5126,
      "count": 68,
      "max": [
        0.9949573278427124,
        0.10516224801540375,
        0.35894414782524109,
        1
      ],
      "min": [
        0.92882150411605835,
        0.089900210499763489,
        -0.35895535349845886,
        1
      ],
      "type": "VEC4"
    },
    {
      "bufferView": 3,
      "byteOffset": 58944,
      "componentType": 5126,
      "count": 68,
      "max": [
        0,
        0,
        0,
        1
      ],
      "min": [
        0,
        0,
        0,
        1
      ],
      "type": "VEC4"
    },
    {
      "bufferView": 0,
      "byteOffset": 24360,
      "componentType": 5125,
      "count": 300,
      "max": [
        67
      ],
      "min": [
        0
      ],
      "type": "SCALAR"
    },
    {
      "bufferView": 2,
      "byteOffset": 45024,
      "componentType": 5126,
      "count": 2324,
      "max": [
        0.37257778644561768,
        0.39867809414863586,
        0.78929609060287476
      ],
      "min": [
        -0.37369421124458313,
        -0.38401535153388977,
        0.73319435119628906
      ],
      "type": "VEC3"
    },
    {
      "bufferView": 2,
      "byteOffset": 72912,
      "componentType": 5126,
      "count": 2324,
      "max": [
        1,
        1,
        1
      ],
      "min": [
        -1,
        -1,
        -1
      ],
      "type": "VEC3"
    },
    {
      "bufferView": 3,
      "byteOffset": 60032,
      "componentType": 5126,
      "count": 2324,
      "max": [
        0.78768831491470337,
        1,
        1,
        1
      ],
      "min": [
        -1,
        -0.78702783584594727,
        -1,
        1
      ],
      "type": "VEC4"
    },
    {
      "bufferView": 3,
      "byteOffset": 97216,
      "componentType": 5126,
      "count": 2324,
      "max": [
        0.60000002384185791,
        0.60000002384185791,
        0.60000002384185791,
        1
      ],
      "min": [
        0,
        0,
        0,
        1
      ],
      "type": "VEC4"
    },
    {
      "bufferView": 1,
      "byteOffset": 14464,
      "componentType": 5126,
      "count": 2324,
      "max": [
        0.92334640026092529,
        0.91595262289047241
      ],
      "min": [
        0.27049523591995239,
        0.10360291600227356
      ],
      "type": "VEC2"
    },
    {
      "bufferView": 0,
      "byteOffset": 25560,
      "componentType": 5125,
      "count": 8928,
      "max": [
        2323
      ],
      "min": [
        0
      ],
      "type": "SCALAR"
    },
    {
      "bufferView": 2,
      "byteOffset": 100800,
      "componentType": 5126,
      "count": 70,
      "max": [
        0.26484313607215881,
        0.28835713863372803,
        0.71790969371795654
      ],
      "min": [
        -0.2653559148311615,
        -0.27180466055870056,
        0.64617902040481567
      ],
      "type": "VEC3"
    },
    {
      "bufferView": 2,
      "byteOffset": 101640,
      "componentType": 5126,
      "count": 70,
      "max": [
        0.6148914098739624,
        0.56163871288299561,
        0.99966514110565186
      ],
      "min": [
        -0.61210280656814575,
        -0.56114715337753296,
        0.7881348729133606
      ],
      "type": "VEC3"
    },
    {
      "bufferView": 3,
      "byteOffset": 134400,
      "componentType": 5126,
      "count": 70,
      "max": [
        -0.78841298818588257,
        0.013436227105557919,
        0.61514443159103394,
        1
      ],
      "min": [
        -1,
        -0.010382145643234253,
        -0.61233663558959961,
        1
      ],
      "type": "VEC4"
    },
    {
      "bufferView": 3,
      "byteOffset": 135520,
      "componentType": 5126,
      "count": 70,
      "max": [
        0.14509804546833038,
        0.14509804546833038,
        0.14509804546833038,
        1
      ],
      "min": [
        0,
        0,
        0,
        1
      ],
      "type": "VEC4"
    },
    {
      "bufferView": 1,
      "byteOffset": 33056,
      "componentType": 5126,
      "count": 70,
      "max": [
        0.56841391324996948,
        0.79850775003433228
      ],
      "min": [
        0.46251535415649414,
        0.68690353631973267
      ],
      "type": "VEC2"
    },
    {
      "bufferView": 0,
      "byteOffset": 61272,
      "componentType": 5125,
      "count": 312,
      "max": [
        69
      ],
      "min": [
        0
      ],
      "type": "SCALAR"
    }
  ],
  "asset": {
    "extras": {
      "author": "Thiago (https://sketchfab.com/zoid)",
      "license": "CC-BY-SA-4.0 (http://creativecommons.org/licenses/by-sa/4.0/)",
      "source": "https://sketchfab.com/models/7d76c44cb9dd4948b8766d83994ca5f3",
      "title": "PBR Pokeball (Recreated)"
    },
    "generator": "Sketchfab-3.19.6",
    "version": "2.0"
  },
  "bufferViews": [
    {
      "buffer": 0,
      "byteLength": 62520,
      "byteOffset": 0,
      "name": "floatBufferViews",
      "target": 34963
    },
    {
      "buffer": 0,
      "byteLength": 33616,
      "byteOffset": 62520,
      "byteStride": 8,
      "name": "floatBufferViews",
      "target": 34962
    },
    {
      "buffer": 0,
      "byteLength": 102480,
      "byteOffset": 96136,
      "byteStride": 12,
      "name": "floatBufferViews",
      "target": 34962
    },
    {
      "buffer": 0,
      "byteLength": 136640,
      "byteOffset": 198616,
      "byteStride": 16,
      "name": "floatBufferViews",
      "target": 34962
    }
  ],
  "buffers": [
    {
      "byteLength": 335256,
      "uri": "scene.bin"
    }
  ],
  "images": [
    {
      "uri": "textures/Metal_metallicRoughness.png"
    },
    {
      "uri": "textures/Metal_baseColor.png"
    },
    {
      "uri": "textures/material_normal.png"
    },
    {
      "uri": "textures/material_metallicRoughness.png"
    },
    {
      "uri": "textures/material_baseColor.png"
    },
    {
      "uri": "textures/Glass_metallicRoughness.png"
    },
    {
      "uri": "textures/White_normal.png"
    },
    {
      "uri": "textures/White_metallicRoughness.png"
    },
    {
      "uri": "textures/White_baseColor.png"
    },
    {
      "uri": "textures/Iron_metallicRoughness.png"
    }
  ],
  "materials": [
    {
      "doubleSided": true,
      "emissiveFactor": [
        0,
        0,
        0
      ],
      "name": "White",
      "normalTexture": {
        "index": 6,
        "scale": 1,
        "texCoord": 0
      },
      "pbrMetallicRoughness": {
        "baseColorFactor": [
          1,
          1,
          1,
          1
        ],
        "baseColorTexture": {
          "index": 8,
          "texCoord": 0
        },
        "metallicFactor": 0.80000000000000004,
        "metallicRoughnessTexture": {
          "index": 7,
          "texCoord": 0
        },
        "roughnessFactor": 1
      }
    },
    {
      "doubleSided": true,
      "emissiveFactor": [
        0,
        0,
        0
      ],
      "name": "Metal",
      "occlusionTexture": {
        "index": 0,
        "strength": 1,
        "texCoord": 0
      },
      "pbrMetallicRoughness": {
        "baseColorFactor": [
          1,
          1,
          1,
          1
        ],
        "baseColorTexture": {
          "index": 1,
          "texCoord": 0
        },
        "metallicFactor": 0,
        "metallicRoughnessTexture": {
          "index": 0,
          "texCoord": 0
        },
        "roughnessFactor": 0.46999999999999997
      }
    },
    {
      "doubleSided": true,
      "emissiveFactor": [
        0,
        0,
        0
      ],
      "name": "material",
      "normalTexture": {
        "index": 2,
        "scale": 1,
        "texCoord": 0
      },
      "pbrMetallicRoughness": {
        "baseColorFactor": [
          1,
          1,
          1,
          1
        ],
        "baseColorTexture": {
          "index": 4,
          "texCoord": 0
        },
        "metallicFactor": 0.80000000000000004,
        "metallicRoughnessTexture": {
          "index": 3,
          "texCoord": 0
        },
        "roughnessFactor": 1
      }
    },
    {
      "doubleSided": true,
      "emissiveFactor": [
        1,
        0,
        0
      ],
      "name": "Lens",
      "pbrMetallicRoughness": {
        "baseColorFactor": [
          1,
          1,
          1,
          1
        ],
        "metallicFactor": 0,
        "roughnessFactor": 0.59999999999999998
      }
    },
    {
      "doubleSided": true,
      "emissiveFactor": [
        0,
        0,
        0
      ],
      "name": "Iron",
      "pbrMetallicRoughness": {
        "baseColorFactor": [
          0.1055604129,
          0.1053541184,
          0.094271598200000001,
          1
        ],
        "metallicFactor": 1,
        "metallicRoughnessTexture": {
          "index": 9,
          "texCoord": 0
        },
        "roughnessFactor": 1
      }
    },
    {
      "alphaMode": "BLEND",
      "doubleSided": true,
      "emissiveFactor": [
        0,
        0,
        0
      ],
      "name": "Glass",
      "pbrMetallicRoughness": {
        "baseColorFactor": [
          0.25730578539999999,
          0.25730578539999999,
          0.25730578539999999,
          0.79000000000000004
        ],
        "metallicFactor": 0.95999999999999996,
        "metallicRoughnessTexture": {
          "index": 5,
          "texCoord": 0
        },
        "roughnessFactor": 0.15000000000000002
      }
    }
  ],
  "meshes": [
    {
      "name": "Sphere_White_0",
      "primitives": [
        {
          "attributes": {
            "COLOR_0": 3,
            "NORMAL": 1,
            "POSITION": 0,
            "TANGENT": 2,
            "TEXCOORD_0": 4
          },
          "indices": 5,
          "material": 0,
          "mode": 4
        }
      ]
    },
    {
      "name": "Sphere_Metal_0",
      "primitives": [
        {
          "attributes": {
            "COLOR_0": 9,
            "NORMAL": 7,
            "POSITION": 6,
            "TANGENT": 8,
            "TEXCOORD_0": 10
          },
          "indices": 11,
          "material": 1,
          "mode": 4
        }
      ]
    },
    {
      "name": "Sphere_Red_0",
      "primitives": [
        {
          "attributes": {
            "COLOR_0": 15,
            "NORMAL": 13,
            "POSITION": 12,
            "TANGENT": 14,
            "TEXCOORD_0": 16
          },
          "indices": 17,
          "material": 2,
          "mode": 4
        }
      ]
    },
    {
      "name": "Sphere_Lens_0",
      "primitives": [
        {
          "attributes": {
            "COLOR_0": 21,
            "NORMAL": 19,
            "POSITION": 18,
            "TANGENT": 20
          },
          "indices": 22,
          "material": 3,
          "mode": 4
        }
      ]
    },
    {
      "name": "Sphere_Iron_0",
      "primitives": [
        {
          "attributes": {
            "COLOR_0": 26,
            "NORMAL": 24,
            "POSITION": 23,
            "TANGENT": 25,
            "TEXCOORD_0": 27
          },
          "indices": 28,
          "material": 4,
          "mode": 4
        }
      ]
    },
    {
      "name": "Sphere_Glass_0",
      "primitives": [
        {
          "attributes": {
            "COLOR_0": 32,
            "NORMAL": 30,
            "POSITION": 29,
            "TANGENT": 31,
            "TEXCOORD_0": 33
          },
          "indices": 34,
          "material": 5,
          "mode": 4
        }
      ]
    }
  ],
  "nodes": [
    {
      "children": [
        1
      ],
      "name": "RootNode (gltf orientation matrix)",
      "rotation": [
        -0.70710678118654746,
        -0,
        -0,
        0.70710678118654757
      ]
    },
    {
      "children": [
        2
      ],
      "name": "RootNode (model correction matrix)"
    },
    {
      "children": [
        3
      ],
      "matrix": [
        1,
        0,
        0,
        0,
        0,
        0,
        1,
        0,
        0,
        -1,
        0,
        0,
        0,
        0,
        0,
        1
      ],
      "name": "b680b57675de4959b4e4095b4b78c77c.fbx"
    },
    {
      "children": [
        4
      ],
      "name": "RootNode"
    },
    {
      "children": [
        5,
        6,
        7,
        8,
        9,
        10
      ],
      "matrix": [
        7.5497899487686482e-06,
        0,
        -99.999999999999716,
        0,
        4.3711395392165142e-06,
        99.999999999999901,
        3.3001185376880853e-13,
        0,
        99.999999999999616,
        -4.3711395392165261e-06,
        7.5497899487686482e-06,
        0,
        0,
        0,
        0,
        1
      ],
      "name": "Sphere"
    },
    {
      "mesh": 0,
      "name": "Sphere_White_0"
    },
    {
      "mesh": 1,
      "name": "Sphere_Metal_0"
    },
    {
      "mesh": 2,
      "name": "Sphere_Red_0"
    },
    {
      "mesh": 3,
      "name": "Sphere_Lens_0"
    },
    {
      "mesh": 4,
      "name": "Sphere_Iron_0"
    },
    {
      "mesh": 5,
      "name": "Sphere_Glass_0"
    }
  ],
  "samplers": [
    {
      "magFilter": 9729,
      "minFilter": 9987,
      "wrapS": 10497,
      "wrapT": 10497
    }
  ],
  "scene": 0,
  "scenes": [
    {
      "name": "OSG_Scene",
      "nodes": [
        0
      ]
    }
  ],
  "textures": [
    {
      "sampler": 0,
      "source": 0
    },
    {
      "sampler": 0,
      "source": 1
    },
    {
      "sampler": 0,
      "source": 2
    },
    {
      "sampler": 0,
      "source": 3
    },
    {
      "sampler": 0,
      "source": 4
    },
    {
      "sampler": 0,
      "source": 5
    },
    {
      "sampler": 0,
      "source": 6
    },
    {
      "sampler": 0,
      "source": 7
    },
    {
      "sampler": 0,
      "source": 8
    },
    {
      "sampler": 0,
      "source": 9
    }
  ]
}

