{
    "asset" : {
        "generator" : "Khronos glTF Blender I/O v0.9.36",
        "version" : "2.0"
    },
    "scene" : 0,
    "scenes" : [
        {
            "name" : "Scene",
            "nodes" : [
                0,
                1,
                2,
                3
            ]
        }
    ],
    "nodes" : [
        {
            "mesh" : 0,
            "name" : "Cylinder",
            "rotation" : [
                0.08715573698282242,
                0,
                0,
                0.9961947202682495
            ],
            "scale" : [
                0.06453011184930801,
                2.1748499870300293,
                0.08563962578773499
            ],
            "translation" : [
                -0.010884894989430904,
                -2.1986780166625977,
                -1.6837527751922607
            ]
        },
        {
            "mesh" : 1,
            "name" : "Cylinder.002",
            "rotation" : [
                0.036443665623664856,
                0.8621708750724792,
                -0.06221068277955055,
                0.5014609694480896
            ],
            "scale" : [
                0.06453000009059906,
                2.1748499870300293,
                0.08563962578773499
            ],
            "translation" : [
                -1.2827693223953247,
                -2.1861820220947266,
                0.7906375527381897
            ]
        },
        {
            "mesh" : 2,
            "name" : "Cylinder.003",
            "rotation" : [
                -0.057570282369852066,
                0.4403214156627655,
                0.03974532708525658,
                0.8951106071472168
            ],
            "scale" : [
                0.06453011184930801,
                2.1748499870300293,
                0.08563962578773499
            ],
            "translation" : [
                1.357691764831543,
                -2.1861820220947266,
                0.7677562832832336
            ]
        },
        {
            "mesh" : 3,
            "name" : "Torus.001",
            "scale" : [
                1.2535218000411987,
                1.2535218000411987,
                1.2535218000411987
            ],
            "translation" : [
                0.0388665497303009,
                -0.00467991828918457,
                -0.031058382242918015
            ]
        }
    ],
    "meshes" : [
        {
            "name" : "Cylinder",
            "primitives" : [
                {
                    "attributes" : {
                        "POSITION" : 0,
                        "NORMAL" : 1,
                        "TEXCOORD_0" : 2
                    },
                    "indices" : 3
                }
            ]
        },
        {
            "name" : "Cylinder.006",
            "primitives" : [
                {
                    "attributes" : {
                        "POSITION" : 4,
                        "NORMAL" : 5,
                        "TEXCOORD_0" : 6
                    },
                    "indices" : 3
                }
            ]
        },
        {
            "name" : "Cylinder.005",
            "primitives" : [
                {
                    "attributes" : {
                        "POSITION" : 7,
                        "NORMAL" : 8,
                        "TEXCOORD_0" : 9
                    },
                    "indices" : 3
                }
            ]
        },
        {
            "name" : "Torus.001",
            "primitives" : [
                {
                    "attributes" : {
                        "POSITION" : 10,
                        "NORMAL" : 11,
                        "TEXCOORD_0" : 12
                    },
                    "indices" : 13
                }
            ]
        }
    ],
    "accessors" : [
        {
            "bufferView" : 0,
            "componentType" : 5126,
            "count" : 192,
            "max" : [
                1,
                1,
                1
            ],
            "min" : [
                -1,
                -1,
                -1
            ],
            "type" : "VEC3"
        },
        {
            "bufferView" : 1,
            "componentType" : 5126,
            "count" : 192,
            "type" : "VEC3"
        },
        {
            "bufferView" : 2,
            "componentType" : 5126,
            "count" : 192,
            "type" : "VEC2"
        },
        {
            "bufferView" : 3,
            "componentType" : 5123,
            "count" : 372,
            "type" : "SCALAR"
        },
        {
            "bufferView" : 4,
            "componentType" : 5126,
            "count" : 192,
            "max" : [
                1,
                1,
                1
            ],
            "min" : [
                -1,
                -1,
                -1
            ],
            "type" : "VEC3"
        },
        {
            "bufferView" : 5,
            "componentType" : 5126,
            "count" : 192,
            "type" : "VEC3"
        },
        {
            "bufferView" : 6,
            "componentType" : 5126,
            "count" : 192,
            "type" : "VEC2"
        },
        {
            "bufferView" : 7,
            "componentType" : 5126,
            "count" : 192,
            "max" : [
                1,
                1,
                1
            ],
            "min" : [
                -1,
                -1,
                -1
            ],
            "type" : "VEC3"
        },
        {
            "bufferView" : 8,
            "componentType" : 5126,
            "count" : 192,
            "type" : "VEC3"
        },
        {
            "bufferView" : 9,
            "componentType" : 5126,
            "count" : 192,
            "type" : "VEC2"
        },
        {
            "bufferView" : 10,
            "componentType" : 5126,
            "count" : 2304,
            "max" : [
                1.0800000429153442,
                0.07999999821186066,
                1.0800000429153442
            ],
            "min" : [
                -1.0800000429153442,
                -0.07999999821186066,
                -1.0800000429153442
            ],
            "type" : "VEC3"
        },
        {
            "bufferView" : 11,
            "componentType" : 5126,
            "count" : 2304,
            "type" : "VEC3"
        },
        {
            "bufferView" : 12,
            "componentType" : 5126,
            "count" : 2304,
            "type" : "VEC2"
        },
        {
            "bufferView" : 13,
            "componentType" : 5123,
            "count" : 3456,
            "type" : "SCALAR"
        }
    ],
    "bufferViews" : [
        {
            "buffer" : 0,
            "byteLength" : 2304,
            "byteOffset" : 0
        },
        {
            "buffer" : 0,
            "byteLength" : 2304,
            "byteOffset" : 2304
        },
        {
            "buffer" : 0,
            "byteLength" : 1536,
            "byteOffset" : 4608
        },
        {
            "buffer" : 0,
            "byteLength" : 744,
            "byteOffset" : 6144
        },
        {
            "buffer" : 0,
            "byteLength" : 2304,
            "byteOffset" : 6888
        },
        {
            "buffer" : 0,
            "byteLength" : 2304,
            "byteOffset" : 9192
        },
        {
            "buffer" : 0,
            "byteLength" : 1536,
            "byteOffset" : 11496
        },
        {
            "buffer" : 0,
            "byteLength" : 2304,
            "byteOffset" : 13032
        },
        {
            "buffer" : 0,
            "byteLength" : 2304,
            "byteOffset" : 15336
        },
        {
            "buffer" : 0,
            "byteLength" : 1536,
            "byteOffset" : 17640
        },
        {
            "buffer" : 0,
            "byteLength" : 27648,
            "byteOffset" : 19176
        },
        {
            "buffer" : 0,
            "byteLength" : 27648,
            "byteOffset" : 46824
        },
        {
            "buffer" : 0,
            "byteLength" : 18432,
            "byteOffset" : 74472
        },
        {
            "buffer" : 0,
            "byteLength" : 6912,
            "byteOffset" : 92904
        }
    ],
    "buffers" : [
        {
            "byteLength" : 99816,
            "uri" : "statief.bin"
        }
    ]
}
