{"asset":{"version":"2.0","generator":"THREE.GLTFExporter"},"scenes":[{"nodes":[0],"name":"AuxScene"}],"scene":0,"nodes":[{"mesh":0}],"bufferViews":[{"buffer":0,"byteOffset":0,"byteLength":3348,"target":34962,"byteStride":12},{"buffer":0,"byteOffset":3348,"byteLength":3348,"target":34962,"byteStride":12}],"buffers":[{"byteLength":6696,"uri":"data:application/octet-stream;base64,"}],"accessors":[{"bufferView":0,"componentType":5126,"count":279,"max":[7.21014404296875,3.5999999046325684,9.086442947387695],"min":[-5.08985710144043,0.20000000298023224,-9.663558006286621],"type":"VEC3"},{"bufferView":1,"componentType":5126,"count":279,"max":[0.40406063199043274,1,0.10101517289876938],"min":[-0.2985050678253174,0.895534098148346,-0.3980136811733246],"type":"VEC3"}],"materials":[{"pbrMetallicRoughness":{"baseColorFactor":[0.5019607843137255,0.5019607843137255,0.5019607843137255,1],"metallicFactor":0,"roughnessFactor":1}}],"meshes":[{"primitives":[{"mode":4,"attributes":{"POSITION":0,"NORMAL":1},"material":0}]}]}