{"asset":{"version":"2.0","generator":"THREE.GLTFExporter"},"scenes":[{"nodes":[0],"name":"AuxScene"}],"scene":0,"nodes":[{"mesh":0}],"bufferViews":[{"buffer":0,"byteOffset":0,"byteLength":2088,"target":34962,"byteStride":12},{"buffer":0,"byteOffset":2088,"byteLength":2088,"target":34962,"byteStride":12}],"buffers":[{"byteLength":4176,"uri":"data:application/octet-stream;base64,"}],"accessors":[{"bufferView":0,"componentType":5126,"count":174,"max":[7.124619007110596,0.6026700139045715,7.586442947387695],"min":[-2.1753809452056885,0.20266999304294586,-9.513557434082031],"type":"VEC3"},{"bufferView":1,"componentType":5126,"count":174,"max":[0.18711212277412415,1,0.19069252908229828],"min":[-0.4767313301563263,0.8581163287162781,-0.3162277638912201],"type":"VEC3"}],"materials":[{"pbrMetallicRoughness":{"baseColorFactor":[0.5019607843137255,0.5019607843137255,0.5019607843137255,1],"metallicFactor":0,"roughnessFactor":1}}],"meshes":[{"primitives":[{"mode":4,"attributes":{"POSITION":0,"NORMAL":1},"material":0}]}]}