{
    "asset" : {
        "generator" : "Khronos glTF Blender I/O v1.0.5",
        "version" : "2.0"
    },
    "scene" : 0,
    "scenes" : [
        {
            "name" : "Scene",
            "nodes" : [
                0,
                1
            ]
        }
    ],
    "nodes" : [
        {
            "mesh" : 0,
            "name" : "Cylinder",
            "scale" : [
                8.055937767028809,
                8.055937767028809,
                8.055937767028809
            ]
        },
        {
            "mesh" : 1,
            "name" : "Tuit",
            "scale" : [
                8.055937767028809,
                8.055937767028809,
                8.055937767028809
            ]
        }
    ],
    "meshes" : [
        {
            "name" : "Cylinder",
            "primitives" : [
                {
                    "attributes" : {
                        "POSITION" : 0,
                        "NORMAL" : 1,
                        "TEXCOORD_0" : 2
                    },
                    "indices" : 3
                }
            ]
        },
        {
            "name" : "Cylinder.002",
            "primitives" : [
                {
                    "attributes" : {
                        "POSITION" : 4,
                        "NORMAL" : 5,
                        "TEXCOORD_0" : 6
                    },
                    "indices" : 7
                }
            ]
        }
    ],
    "accessors" : [
        {
            "bufferView" : 0,
            "componentType" : 5126,
            "count" : 510,
            "max" : [
                0.049250952899456024,
                0.04768325388431549,
                0.049869563430547714
            ],
            "min" : [
                -0.04900777339935303,
                -0.14812448620796204,
                -0.04873852804303169
            ],
            "type" : "VEC3"
        },
        {
            "bufferView" : 1,
            "componentType" : 5126,
            "count" : 510,
            "type" : "VEC3"
        },
        {
            "bufferView" : 2,
            "componentType" : 5126,
            "count" : 510,
            "type" : "VEC2"
        },
        {
            "bufferView" : 3,
            "componentType" : 5123,
            "count" : 510,
            "type" : "SCALAR"
        },
        {
            "bufferView" : 4,
            "componentType" : 5126,
            "count" : 444,
            "max" : [
                0.02308317832648754,
                0.15017959475517273,
                0.023128801956772804
            ],
            "min" : [
                -0.10022694617509842,
                0.046131301671266556,
                -0.02305786684155464
            ],
            "type" : "VEC3"
        },
        {
            "bufferView" : 5,
            "componentType" : 5126,
            "count" : 444,
            "type" : "VEC3"
        },
        {
            "bufferView" : 6,
            "componentType" : 5126,
            "count" : 444,
            "type" : "VEC2"
        },
        {
            "bufferView" : 7,
            "componentType" : 5123,
            "count" : 444,
            "type" : "SCALAR"
        }
    ],
    "bufferViews" : [
        {
            "buffer" : 0,
            "byteLength" : 6120,
            "byteOffset" : 0
        },
        {
            "buffer" : 0,
            "byteLength" : 6120,
            "byteOffset" : 6120
        },
        {
            "buffer" : 0,
            "byteLength" : 4080,
            "byteOffset" : 12240
        },
        {
            "buffer" : 0,
            "byteLength" : 1020,
            "byteOffset" : 16320
        },
        {
            "buffer" : 0,
            "byteLength" : 5328,
            "byteOffset" : 17340
        },
        {
            "buffer" : 0,
            "byteLength" : 5328,
            "byteOffset" : 22668
        },
        {
            "buffer" : 0,
            "byteLength" : 3552,
            "byteOffset" : 27996
        },
        {
            "buffer" : 0,
            "byteLength" : 888,
            "byteOffset" : 31548
        }
    ],
    "buffers" : [
        {
            "byteLength" : 32436,
            "uri" : "data:application/octet-stream;base64,"
        }
    ]
}
