{
    "asset" : {
        "generator" : "Khronos glTF Blender I/O v1.0.5",
        "version" : "2.0"
    },
    "scene" : 0,
    "scenes" : [
        {
            "name" : "Scene",
            "nodes" : [
                0
            ]
        }
    ],
    "nodes" : [
        {
            "mesh" : 0,
            "name" : "Tuit",
            "rotation" : [
                0.7071068286895752,
                0,
                0,
                0.7071067094802856
            ],
            "scale" : [
                8.055937767028809,
                8.055938720703125,
                8.055938720703125
            ]
        }
    ],
    "meshes" : [
        {
            "name" : "Cylinder.002",
            "primitives" : [
                {
                    "attributes" : {
                        "POSITION" : 0,
                        "NORMAL" : 1,
                        "TEXCOORD_0" : 2
                    },
                    "indices" : 3
                }
            ]
        }
    ],
    "accessors" : [
        {
            "bufferView" : 0,
            "componentType" : 5126,
            "count" : 954,
            "max" : [
                0.049250952899456024,
                0.049869563430547714,
                0.14812448620796204
            ],
            "min" : [
                -0.10022694617509842,
                -0.04873852804303169,
                -0.15017959475517273
            ],
            "type" : "VEC3"
        },
        {
            "bufferView" : 1,
            "componentType" : 5126,
            "count" : 954,
            "type" : "VEC3"
        },
        {
            "bufferView" : 2,
            "componentType" : 5126,
            "count" : 954,
            "type" : "VEC2"
        },
        {
            "bufferView" : 3,
            "componentType" : 5123,
            "count" : 954,
            "type" : "SCALAR"
        }
    ],
    "bufferViews" : [
        {
            "buffer" : 0,
            "byteLength" : 11448,
            "byteOffset" : 0
        },
        {
            "buffer" : 0,
            "byteLength" : 11448,
            "byteOffset" : 11448
        },
        {
            "buffer" : 0,
            "byteLength" : 7632,
            "byteOffset" : 22896
        },
        {
            "buffer" : 0,
            "byteLength" : 1908,
            "byteOffset" : 30528
        }
    ],
    "buffers" : [
        {
            "byteLength" : 32436,
            "uri" : "data:application/octet-stream;base64,"
        }
    ]
}
