{
    "asset" : {
        "generator" : "Khronos glTF Blender I/O v1.0.5",
        "version" : "2.0"
    },
    "scene" : 0,
    "scenes" : [
        {
            "name" : "Scene",
            "nodes" : [
                0
            ]
        }
    ],
    "nodes" : [
        {
            "mesh" : 0,
            "name" : "Cloth_Sha0",
            "rotation" : [
                0.7071068286895752,
                0,
                0,
                0.7071067094802856
            ],
            "scale" : [
                0.0008748268010094762,
                0.0008748268010094762,
                0.0008748268010094762
            ],
            "translation" : [
                0,
                -0.7117016911506653,
                0
            ]
        }
    ],
    "materials" : [
        {
            "doubleSided" : true,
            "name" : "default",
            "pbrMetallicRoughness" : {
                "baseColorFactor" : [
                    0.800000011920929,
                    0.800000011920929,
                    0.800000011920929,
                    1
                ],
                "metallicFactor" : 0,
                "roughnessFactor" : 0.5
            }
        }
    ],
    "meshes" : [
        {
            "name" : "Cloth_Sha0",
            "primitives" : [
                {
                    "attributes" : {
                        "POSITION" : 0,
                        "NORMAL" : 1
                    },
                    "indices" : 2,
                    "material" : 0
                }
            ]
        }
    ],
    "accessors" : [
        {
            "bufferView" : 0,
            "componentType" : 5126,
            "count" : 46047,
            "max" : [
                179.55682373046875,
                181.5456085205078,
                -9.25390625
            ],
            "min" : [
                -179.55682373046875,
                -181.54566955566406,
                -1361.2685546875
            ],
            "type" : "VEC3"
        },
        {
            "bufferView" : 1,
            "componentType" : 5126,
            "count" : 46047,
            "type" : "VEC3"
        },
        {
            "bufferView" : 2,
            "componentType" : 5123,
            "count" : 46047,
            "type" : "SCALAR"
        }
    ],
    "bufferViews" : [
        {
            "buffer" : 0,
            "byteLength" : 552564,
            "byteOffset" : 0
        },
        {
            "buffer" : 0,
            "byteLength" : 552564,
            "byteOffset" : 552564
        },
        {
            "buffer" : 0,
            "byteLength" : 92094,
            "byteOffset" : 1105128
        }
    ],
    "buffers" : [
        {
            "byteLength" : 1197224,
            "uri" : "data:application/octet-stream;base64,"
        }
    ]
}
