{
    "asset" : {
        "generator" : "Khronos glTF Blender I/O v1.0.5",
        "version" : "2.0"
    },
    "scene" : 0,
    "scenes" : [
        {
            "name" : "Scene",
            "nodes" : [
                0
            ]
        }
    ],
    "nodes" : [
        {
            "mesh" : 0,
            "name" : "Cylinder.001",
            "rotation" : [
                -0.501286506652832,
                0.5013900399208069,
                -0.4985145330429077,
                0.49880170822143555
            ],
            "scale" : [
                0.05460570380091667,
                0.05460570380091667,
                0.054605692625045776
            ],
            "translation" : [
                -0.5001879930496216,
                1.3274747133255005,
                0.09144625067710876
            ]
        }
    ],
    "materials" : [
        {
            "doubleSided" : true,
            "name" : "Door_material.003",
            "pbrMetallicRoughness" : {
                "baseColorFactor" : [
                    0.800000011920929,
                    0.800000011920929,
                    0.800000011920929,
                    1
                ],
                "metallicFactor" : 0,
                "roughnessFactor" : 0.5
            }
        },
        {
            "doubleSided" : true,
            "name" : "Door_material.002",
            "pbrMetallicRoughness" : {
                "baseColorFactor" : [
                    0.800000011920929,
                    0.800000011920929,
                    0.800000011920929,
                    1
                ],
                "metallicFactor" : 0,
                "roughnessFactor" : 0.5
            }
        }
    ],
    "meshes" : [
        {
            "name" : "Cylinder.000",
            "primitives" : [
                {
                    "attributes" : {
                        "POSITION" : 0,
                        "NORMAL" : 1,
                        "TEXCOORD_0" : 2
                    },
                    "indices" : 3,
                    "material" : 0
                },
                {
                    "attributes" : {
                        "POSITION" : 4,
                        "NORMAL" : 5,
                        "TEXCOORD_0" : 6
                    },
                    "indices" : 7,
                    "material" : 1
                }
            ]
        }
    ],
    "accessors" : [
        {
            "bufferView" : 0,
            "componentType" : 5126,
            "count" : 444,
            "max" : [
                24.93311882019043,
                4.9365105628967285,
                16.2529296875
            ],
            "min" : [
                -23.087499618530273,
                -1.62480628490448,
                -2.0547237396240234
            ],
            "type" : "VEC3"
        },
        {
            "bufferView" : 1,
            "componentType" : 5126,
            "count" : 444,
            "type" : "VEC3"
        },
        {
            "bufferView" : 2,
            "componentType" : 5126,
            "count" : 444,
            "type" : "VEC2"
        },
        {
            "bufferView" : 3,
            "componentType" : 5123,
            "count" : 1704,
            "type" : "SCALAR"
        },
        {
            "bufferView" : 4,
            "componentType" : 5126,
            "count" : 95,
            "max" : [
                25.029970169067383,
                5.231752395629883,
                18.23703956604004
            ],
            "min" : [
                -25.14229965209961,
                0.31540918350219727,
                -4.014042377471924
            ],
            "type" : "VEC3"
        },
        {
            "bufferView" : 5,
            "componentType" : 5126,
            "count" : 95,
            "type" : "VEC3"
        },
        {
            "bufferView" : 6,
            "componentType" : 5126,
            "count" : 95,
            "type" : "VEC2"
        },
        {
            "bufferView" : 7,
            "componentType" : 5123,
            "count" : 141,
            "type" : "SCALAR"
        }
    ],
    "bufferViews" : [
        {
            "buffer" : 0,
            "byteLength" : 5328,
            "byteOffset" : 0
        },
        {
            "buffer" : 0,
            "byteLength" : 5328,
            "byteOffset" : 5328
        },
        {
            "buffer" : 0,
            "byteLength" : 3552,
            "byteOffset" : 10656
        },
        {
            "buffer" : 0,
            "byteLength" : 3408,
            "byteOffset" : 14208
        },
        {
            "buffer" : 0,
            "byteLength" : 1140,
            "byteOffset" : 17616
        },
        {
            "buffer" : 0,
            "byteLength" : 1140,
            "byteOffset" : 18756
        },
        {
            "buffer" : 0,
            "byteLength" : 760,
            "byteOffset" : 19896
        },
        {
            "buffer" : 0,
            "byteLength" : 282,
            "byteOffset" : 20656
        }
    ],
    "buffers" : [
        {
            "byteLength" : 20940,
            "uri" : "data:application/octet-stream;base64,"
        }
    ]
}
