{"asset":{"version":"2.0","generator":"THREE.GLTFExporter"},"scenes":[{"nodes":[0],"name":"AuxScene"}],"scene":0,"nodes":[{"mesh":0}],"bufferViews":[{"buffer":0,"byteOffset":0,"byteLength":4968,"target":34962,"byteStride":12},{"buffer":0,"byteOffset":4968,"byteLength":4968,"target":34962,"byteStride":12}],"buffers":[{"byteLength":9936,"uri":"data:application/octet-stream;base64,"}],"accessors":[{"bufferView":0,"componentType":5126,"count":414,"max":[7.252367973327637,3.5,9.186443328857422],"min":[-5.147632122039795,0.10000000149011612,-9.613557815551758],"type":"VEC3"},{"bufferView":1,"componentType":5126,"count":414,"max":[0.4799611270427704,1,0.43643543124198914],"min":[-0.21821781992912292,0.8728717565536499,-0.034475766122341156],"type":"VEC3"}],"materials":[{"pbrMetallicRoughness":{"baseColorFactor":[0.5019607843137255,0.5019607843137255,0.5019607843137255,1],"metallicFactor":0,"roughnessFactor":1}}],"meshes":[{"primitives":[{"mode":4,"attributes":{"POSITION":0,"NORMAL":1},"material":0}]}]}