{
    "asset" : {
        "generator" : "Khronos glTF Blender I/O v1.0.5",
        "version" : "2.0"
    },
    "scene" : 0,
    "scenes" : [
        {
            "name" : "Scene",
            "nodes" : [
                0
            ]
        }
    ],
    "nodes" : [
        {
            "mesh" : 0,
            "name" : "Erlenmeyer",
            "scale" : [
                0.3732015788555145,
                0.3732015788555145,
                0.3732015788555145
            ],
            "translation" : [
                0.02035081386566162,
                -0.470371812582016,
                -0.010478287935256958
            ]
        }
    ],
    "meshes" : [
        {
            "name" : "Sphere",
            "primitives" : [
                {
                    "attributes" : {
                        "POSITION" : 0,
                        "NORMAL" : 1,
                        "TEXCOORD_0" : 2
                    },
                    "indices" : 3
                }
            ]
        }
    ],
    "accessors" : [
        {
            "bufferView" : 0,
            "componentType" : 5126,
            "count" : 2139,
            "max" : [
                1.2592333555221558,
                3.0960044860839844,
                1.227746605873108
            ],
            "min" : [
                -1.2592332363128662,
                -1.0890694856643677,
                -1.2907195091247559
            ],
            "type" : "VEC3"
        },
        {
            "bufferView" : 1,
            "componentType" : 5126,
            "count" : 2139,
            "type" : "VEC3"
        },
        {
            "bufferView" : 2,
            "componentType" : 5126,
            "count" : 2139,
            "type" : "VEC2"
        },
        {
            "bufferView" : 3,
            "componentType" : 5123,
            "count" : 2793,
            "type" : "SCALAR"
        }
    ],
    "bufferViews" : [
        {
            "buffer" : 0,
            "byteLength" : 25668,
            "byteOffset" : 0
        },
        {
            "buffer" : 0,
            "byteLength" : 25668,
            "byteOffset" : 25668
        },
        {
            "buffer" : 0,
            "byteLength" : 17112,
            "byteOffset" : 51336
        },
        {
            "buffer" : 0,
            "byteLength" : 5586,
            "byteOffset" : 68448
        }
    ],
    "buffers" : [
        {
            "byteLength" : 74036,
            "uri" : "data:application/octet-stream;base64,"
        }
    ]
}
