{
    "asset" : {
        "generator" : "Khronos glTF Blender I/O v1.0.5",
        "version" : "2.0"
    },
    "scene" : 0,
    "scenes" : [
        {
            "name" : "Scene",
            "nodes" : [
                0
            ]
        }
    ],
    "nodes" : [
        {
            "mesh" : 0,
            "name" : "Cylinder.008",
            "rotation" : [
                0.7071067690849304,
                0,
                0,
                0.7071067690849304
            ],
            "scale" : [
                0.004290533717721701,
                0.004290533717721701,
                0.004290533717721701
            ],
            "translation" : [
                0,
                0.10103748738765717,
                -0.017645616084337234
            ]
        }
    ],
    "materials" : [
        {
            "doubleSided" : true,
            "name" : "Material.003",
            "pbrMetallicRoughness" : {
                "baseColorFactor" : [
                    0,
                    0.0005843696999363601,
                    0.8000000715255737,
                    1
                ],
                "metallicFactor" : 0,
                "roughnessFactor" : 0.5
            }
        },
        {
            "doubleSided" : true,
            "name" : "Material.002",
            "pbrMetallicRoughness" : {
                "baseColorFactor" : [
                    1,
                    1,
                    1,
                    1
                ],
                "metallicFactor" : 0,
                "roughnessFactor" : 0.5
            }
        },
        {
            "doubleSided" : true,
            "name" : "Material.001",
            "pbrMetallicRoughness" : {
                "baseColorFactor" : [
                    0.6500048041343689,
                    0.6500048041343689,
                    0.6500048041343689,
                    1
                ],
                "metallicFactor" : 0,
                "roughnessFactor" : 0.5
            }
        }
    ],
    "meshes" : [
        {
            "name" : "Cylinder.013",
            "primitives" : [
                {
                    "attributes" : {
                        "POSITION" : 0,
                        "NORMAL" : 1,
                        "TEXCOORD_0" : 2
                    },
                    "indices" : 3,
                    "material" : 0
                },
                {
                    "attributes" : {
                        "POSITION" : 4,
                        "NORMAL" : 5,
                        "TEXCOORD_0" : 6
                    },
                    "indices" : 7,
                    "material" : 1
                },
                {
                    "attributes" : {
                        "POSITION" : 8,
                        "NORMAL" : 9,
                        "TEXCOORD_0" : 10
                    },
                    "indices" : 11,
                    "material" : 2
                }
            ]
        }
    ],
    "accessors" : [
        {
            "bufferView" : 0,
            "componentType" : 5126,
            "count" : 1450,
            "max" : [
                1.9961038827896118,
                9.85106372833252,
                4.390651226043701
            ],
            "min" : [
                -1.996103286743164,
                -1.9388017654418945,
                -3.5202910900115967
            ],
            "type" : "VEC3"
        },
        {
            "bufferView" : 1,
            "componentType" : 5126,
            "count" : 1450,
            "type" : "VEC3"
        },
        {
            "bufferView" : 2,
            "componentType" : 5126,
            "count" : 1450,
            "type" : "VEC2"
        },
        {
            "bufferView" : 3,
            "componentType" : 5123,
            "count" : 1596,
            "type" : "SCALAR"
        },
        {
            "bufferView" : 4,
            "componentType" : 5126,
            "count" : 1906,
            "max" : [
                2.610398530960083,
                8.042222023010254,
                50.31127166748047
            ],
            "min" : [
                -2.610398530960083,
                -2.564815044403076,
                -2.215373992919922
            ],
            "type" : "VEC3"
        },
        {
            "bufferView" : 5,
            "componentType" : 5126,
            "count" : 1906,
            "type" : "VEC3"
        },
        {
            "bufferView" : 6,
            "componentType" : 5126,
            "count" : 1906,
            "type" : "VEC2"
        },
        {
            "bufferView" : 7,
            "componentType" : 5123,
            "count" : 2592,
            "type" : "SCALAR"
        },
        {
            "bufferView" : 8,
            "componentType" : 5126,
            "count" : 59,
            "max" : [
                0.9047520160675049,
                5.384781837463379,
                50.31127166748047
            ],
            "min" : [
                -0.8470447659492493,
                3.6329851150512695,
                40.06913757324219
            ],
            "type" : "VEC3"
        },
        {
            "bufferView" : 9,
            "componentType" : 5126,
            "count" : 59,
            "type" : "VEC3"
        },
        {
            "bufferView" : 10,
            "componentType" : 5126,
            "count" : 59,
            "type" : "VEC2"
        },
        {
            "bufferView" : 11,
            "componentType" : 5123,
            "count" : 81,
            "type" : "SCALAR"
        }
    ],
    "bufferViews" : [
        {
            "buffer" : 0,
            "byteLength" : 17400,
            "byteOffset" : 0
        },
        {
            "buffer" : 0,
            "byteLength" : 17400,
            "byteOffset" : 17400
        },
        {
            "buffer" : 0,
            "byteLength" : 11600,
            "byteOffset" : 34800
        },
        {
            "buffer" : 0,
            "byteLength" : 3192,
            "byteOffset" : 46400
        },
        {
            "buffer" : 0,
            "byteLength" : 22872,
            "byteOffset" : 49592
        },
        {
            "buffer" : 0,
            "byteLength" : 22872,
            "byteOffset" : 72464
        },
        {
            "buffer" : 0,
            "byteLength" : 15248,
            "byteOffset" : 95336
        },
        {
            "buffer" : 0,
            "byteLength" : 5184,
            "byteOffset" : 110584
        },
        {
            "buffer" : 0,
            "byteLength" : 708,
            "byteOffset" : 115768
        },
        {
            "buffer" : 0,
            "byteLength" : 708,
            "byteOffset" : 116476
        },
        {
            "buffer" : 0,
            "byteLength" : 472,
            "byteOffset" : 117184
        },
        {
            "buffer" : 0,
            "byteLength" : 162,
            "byteOffset" : 117656
        }
    ],
    "buffers" : [
        {
            "byteLength" : 117820,
            "uri" : "pipetLowPoly.bin"
        }
    ]
}
