{
    "asset" : {
        "generator" : "Khronos glTF Blender I/O v1.0.5",
        "version" : "2.0"
    },
    "scene" : 0,
    "scenes" : [
        {
            "name" : "Scene",
            "nodes" : [
                0
            ]
        }
    ],
    "nodes" : [
        {
            "mesh" : 0,
            "name" : "pipet",
            "rotation" : [
                0.7071067690849304,
                0,
                0,
                0.7071067690849304
            ],
            "scale" : [
                0.004290533717721701,
                0.004290533717721701,
                0.004290533717721701
            ],
            "translation" : [
                0,
                0.10103748738765717,
                -0.017645616084337234
            ]
        }
    ],
    "meshes" : [
        {
            "name" : "Cylinder.013",
            "primitives" : [
                {
                    "attributes" : {
                        "POSITION" : 0,
                        "NORMAL" : 1,
                        "TEXCOORD_0" : 2
                    },
                    "indices" : 3
                }
            ]
        }
    ],
    "accessors" : [
        {
            "bufferView" : 0,
            "componentType" : 5126,
            "count" : 3607,
            "max" : [
                12.412016868591309,
                16.75113868713379,
                51.78028869628906
            ],
            "min" : [
                -12.09391975402832,
                -7.75479793548584,
                -3.5202910900115967
            ],
            "type" : "VEC3"
        },
        {
            "bufferView" : 1,
            "componentType" : 5126,
            "count" : 3607,
            "type" : "VEC3"
        },
        {
            "bufferView" : 2,
            "componentType" : 5126,
            "count" : 3607,
            "type" : "VEC2"
        },
        {
            "bufferView" : 3,
            "componentType" : 5123,
            "count" : 4641,
            "type" : "SCALAR"
        }
    ],
    "bufferViews" : [
        {
            "buffer" : 0,
            "byteLength" : 43284,
            "byteOffset" : 0
        },
        {
            "buffer" : 0,
            "byteLength" : 43284,
            "byteOffset" : 43284
        },
        {
            "buffer" : 0,
            "byteLength" : 28856,
            "byteOffset" : 86568
        },
        {
            "buffer" : 0,
            "byteLength" : 9282,
            "byteOffset" : 115424
        }
    ],
    "buffers" : [
        {
            "byteLength" : 124708,
            "uri" : "data:application/octet-stream;base64,"
        }
    ]
}
