{
    "asset" : {
        "generator" : "Khronos glTF Blender I/O v1.0.5",
        "version" : "2.0"
    },
    "scene" : 0,
    "scenes" : [
        {
            "name" : "Scene",
            "nodes" : [
                0,
                1,
                2,
                3,
                4,
                5,
                6,
                7
            ]
        }
    ],
    "nodes" : [
        {
            "mesh" : 0,
            "name" : "Blad"
        },
        {
            "mesh" : 1,
            "name" : "Cylinder",
            "rotation" : [
                0,
                0,
                0.7071067690849304,
                0.7071067690849304
            ],
            "scale" : [
                0.07335009425878525,
                0.07335009425878525,
                0.07335009425878525
            ],
            "translation" : [
                2.187819242477417,
                1.58657968044281,
                -0.5951437950134277
            ]
        },
        {
            "mesh" : 2,
            "name" : "LadeKast",
            "translation" : [
                0.18240150809288025,
                -1.2826851606369019,
                -0.6777422428131104
            ]
        },
        {
            "mesh" : 3,
            "name" : "OogDouche",
            "rotation" : [
                -0.9995565414428711,
                0,
                0.029777610674500465,
                -4.851388624160791e-09
            ],
            "scale" : [
                0.05550605058670044,
                0.05550605058670044,
                0.05550605058670044
            ],
            "translation" : [
                -1.3074945211410522,
                1.159961223602295,
                0.10171825438737869
            ]
        },
        {
            "mesh" : 4,
            "name" : "Poten",
            "scale" : [
                0.7494708299636841,
                0.7494708299636841,
                0.7494708299636841
            ],
            "translation" : [
                4.8527607917785645,
                -0.2818501591682434,
                -0.5828048586845398
            ]
        },
        {
            "mesh" : 5,
            "name" : "StopContacPaaltjes",
            "translation" : [
                0.27221253514289856,
                0.289375364780426,
                -1.173628568649292
            ]
        },
        {
            "mesh" : 6,
            "name" : "Stopcontact",
            "scale" : [
                0.8987784385681152,
                0.8718151450157166,
                0.8987784385681152
            ],
            "translation" : [
                0.5017904043197632,
                0.5157570838928223,
                -0.18559861183166504
            ]
        },
        {
            "mesh" : 7,
            "name" : "Wasbak",
            "translation" : [
                -0.0748286247253418,
                -0.0036780945956707,
                0
            ]
        }
    ],
    "meshes" : [
        {
            "name" : "Cube.042",
            "primitives" : [
                {
                    "attributes" : {
                        "POSITION" : 0,
                        "NORMAL" : 1,
                        "TEXCOORD_0" : 2
                    },
                    "indices" : 3
                }
            ]
        },
        {
            "name" : "Cylinder.024",
            "primitives" : [
                {
                    "attributes" : {
                        "POSITION" : 4,
                        "NORMAL" : 5,
                        "TEXCOORD_0" : 6
                    },
                    "indices" : 7
                }
            ]
        },
        {
            "name" : "Cube.041",
            "primitives" : [
                {
                    "attributes" : {
                        "POSITION" : 8,
                        "NORMAL" : 9,
                        "TEXCOORD_0" : 10
                    },
                    "indices" : 11
                }
            ]
        },
        {
            "name" : "Cylinder.021",
            "primitives" : [
                {
                    "attributes" : {
                        "POSITION" : 12,
                        "NORMAL" : 13,
                        "TEXCOORD_0" : 14
                    },
                    "indices" : 15
                }
            ]
        },
        {
            "name" : "Cube.032",
            "primitives" : [
                {
                    "attributes" : {
                        "POSITION" : 16,
                        "NORMAL" : 17,
                        "TEXCOORD_0" : 18
                    },
                    "indices" : 19
                }
            ]
        },
        {
            "name" : "Cube.037",
            "primitives" : [
                {
                    "attributes" : {
                        "POSITION" : 20,
                        "NORMAL" : 21,
                        "TEXCOORD_0" : 22
                    },
                    "indices" : 23
                }
            ]
        },
        {
            "name" : "Cube.044",
            "primitives" : [
                {
                    "attributes" : {
                        "POSITION" : 24,
                        "NORMAL" : 25,
                        "TEXCOORD_0" : 26
                    },
                    "indices" : 27
                }
            ]
        },
        {
            "name" : "Cube.036",
            "primitives" : [
                {
                    "attributes" : {
                        "POSITION" : 28,
                        "NORMAL" : 29,
                        "TEXCOORD_0" : 30
                    },
                    "indices" : 31
                }
            ]
        }
    ],
    "accessors" : [
        {
            "bufferView" : 0,
            "componentType" : 5126,
            "count" : 14,
            "max" : [
                5.612521648406982,
                1.2235363721847534,
                1.1383002996444702
            ],
            "min" : [
                -1.1892750263214111,
                1.1718734502792358,
                -2.468754768371582
            ],
            "type" : "VEC3"
        },
        {
            "bufferView" : 1,
            "componentType" : 5126,
            "count" : 14,
            "type" : "VEC3"
        },
        {
            "bufferView" : 2,
            "componentType" : 5126,
            "count" : 14,
            "type" : "VEC2"
        },
        {
            "bufferView" : 3,
            "componentType" : 5123,
            "count" : 36,
            "type" : "SCALAR"
        },
        {
            "bufferView" : 4,
            "componentType" : 5126,
            "count" : 12005,
            "max" : [
                12.509267807006836,
                55.07476806640625,
                5.398394584655762
            ],
            "min" : [
                -1,
                -9.15073013305664,
                -4.319821357727051
            ],
            "type" : "VEC3"
        },
        {
            "bufferView" : 5,
            "componentType" : 5126,
            "count" : 12005,
            "type" : "VEC3"
        },
        {
            "bufferView" : 6,
            "componentType" : 5126,
            "count" : 12005,
            "type" : "VEC2"
        },
        {
            "bufferView" : 7,
            "componentType" : 5123,
            "count" : 21024,
            "type" : "SCALAR"
        },
        {
            "bufferView" : 8,
            "componentType" : 5126,
            "count" : 580,
            "max" : [
                3.6011266708374023,
                2.3877017498016357,
                1.8260682821273804
            ],
            "min" : [
                1.7101022005081177,
                0.25002598762512207,
                -1.825788140296936
            ],
            "type" : "VEC3"
        },
        {
            "bufferView" : 9,
            "componentType" : 5126,
            "count" : 580,
            "type" : "VEC3"
        },
        {
            "bufferView" : 10,
            "componentType" : 5126,
            "count" : 580,
            "type" : "VEC2"
        },
        {
            "bufferView" : 11,
            "componentType" : 5123,
            "count" : 942,
            "type" : "SCALAR"
        },
        {
            "bufferView" : 12,
            "componentType" : 5126,
            "count" : 1228,
            "max" : [
                1.6860238313674927,
                1,
                1.7662179470062256
            ],
            "min" : [
                -1.5582971572875977,
                -11.416268348693848,
                -1.533207654953003
            ],
            "type" : "VEC3"
        },
        {
            "bufferView" : 13,
            "componentType" : 5126,
            "count" : 1228,
            "type" : "VEC3"
        },
        {
            "bufferView" : 14,
            "componentType" : 5126,
            "count" : 1228,
            "type" : "VEC2"
        },
        {
            "bufferView" : 15,
            "componentType" : 5123,
            "count" : 1470,
            "type" : "SCALAR"
        },
        {
            "bufferView" : 16,
            "componentType" : 5126,
            "count" : 1303,
            "max" : [
                0.8872408866882324,
                1.9557712078094482,
                2.233266592025757
            ],
            "min" : [
                -10.371439933776855,
                -1.2146562337875366,
                -2.3870506286621094
            ],
            "type" : "VEC3"
        },
        {
            "bufferView" : 17,
            "componentType" : 5126,
            "count" : 1303,
            "type" : "VEC3"
        },
        {
            "bufferView" : 18,
            "componentType" : 5126,
            "count" : 1303,
            "type" : "VEC2"
        },
        {
            "bufferView" : 19,
            "componentType" : 5123,
            "count" : 1980,
            "type" : "SCALAR"
        },
        {
            "bufferView" : 20,
            "componentType" : 5126,
            "count" : 762,
            "max" : [
                2.428072690963745,
                2.2764878273010254,
                1.0461044311523438
            ],
            "min" : [
                -1.4084233045578003,
                0.8948115706443787,
                0.03793918341398239
            ],
            "type" : "VEC3"
        },
        {
            "bufferView" : 21,
            "componentType" : 5126,
            "count" : 762,
            "type" : "VEC3"
        },
        {
            "bufferView" : 22,
            "componentType" : 5126,
            "count" : 762,
            "type" : "VEC2"
        },
        {
            "bufferView" : 23,
            "componentType" : 5123,
            "count" : 1272,
            "type" : "SCALAR"
        },
        {
            "bufferView" : 24,
            "componentType" : 5126,
            "count" : 1028,
            "max" : [
                2.4669628143310547,
                2.293728828430176,
                0.07404887676239014
            ],
            "min" : [
                1.8937404155731201,
                1.873650074005127,
                -1.0693058967590332
            ],
            "type" : "VEC3"
        },
        {
            "bufferView" : 25,
            "componentType" : 5126,
            "count" : 1028,
            "type" : "VEC3"
        },
        {
            "bufferView" : 26,
            "componentType" : 5126,
            "count" : 1028,
            "type" : "VEC2"
        },
        {
            "bufferView" : 27,
            "componentType" : 5123,
            "count" : 3480,
            "type" : "SCALAR"
        },
        {
            "bufferView" : 28,
            "componentType" : 5126,
            "count" : 96,
            "max" : [
                -1.1170051097869873,
                1.2286319732666016,
                1.1383004188537598
            ],
            "min" : [
                -2.9583895206451416,
                0.7299262881278992,
                -2.4687838554382324
            ],
            "type" : "VEC3"
        },
        {
            "bufferView" : 29,
            "componentType" : 5126,
            "count" : 96,
            "type" : "VEC3"
        },
        {
            "bufferView" : 30,
            "componentType" : 5126,
            "count" : 96,
            "type" : "VEC2"
        },
        {
            "bufferView" : 31,
            "componentType" : 5123,
            "count" : 450,
            "type" : "SCALAR"
        }
    ],
    "bufferViews" : [
        {
            "buffer" : 0,
            "byteLength" : 168,
            "byteOffset" : 0
        },
        {
            "buffer" : 0,
            "byteLength" : 168,
            "byteOffset" : 168
        },
        {
            "buffer" : 0,
            "byteLength" : 112,
            "byteOffset" : 336
        },
        {
            "buffer" : 0,
            "byteLength" : 72,
            "byteOffset" : 448
        },
        {
            "buffer" : 0,
            "byteLength" : 144060,
            "byteOffset" : 520
        },
        {
            "buffer" : 0,
            "byteLength" : 144060,
            "byteOffset" : 144580
        },
        {
            "buffer" : 0,
            "byteLength" : 96040,
            "byteOffset" : 288640
        },
        {
            "buffer" : 0,
            "byteLength" : 42048,
            "byteOffset" : 384680
        },
        {
            "buffer" : 0,
            "byteLength" : 6960,
            "byteOffset" : 426728
        },
        {
            "buffer" : 0,
            "byteLength" : 6960,
            "byteOffset" : 433688
        },
        {
            "buffer" : 0,
            "byteLength" : 4640,
            "byteOffset" : 440648
        },
        {
            "buffer" : 0,
            "byteLength" : 1884,
            "byteOffset" : 445288
        },
        {
            "buffer" : 0,
            "byteLength" : 14736,
            "byteOffset" : 447172
        },
        {
            "buffer" : 0,
            "byteLength" : 14736,
            "byteOffset" : 461908
        },
        {
            "buffer" : 0,
            "byteLength" : 9824,
            "byteOffset" : 476644
        },
        {
            "buffer" : 0,
            "byteLength" : 2940,
            "byteOffset" : 486468
        },
        {
            "buffer" : 0,
            "byteLength" : 15636,
            "byteOffset" : 489408
        },
        {
            "buffer" : 0,
            "byteLength" : 15636,
            "byteOffset" : 505044
        },
        {
            "buffer" : 0,
            "byteLength" : 10424,
            "byteOffset" : 520680
        },
        {
            "buffer" : 0,
            "byteLength" : 3960,
            "byteOffset" : 531104
        },
        {
            "buffer" : 0,
            "byteLength" : 9144,
            "byteOffset" : 535064
        },
        {
            "buffer" : 0,
            "byteLength" : 9144,
            "byteOffset" : 544208
        },
        {
            "buffer" : 0,
            "byteLength" : 6096,
            "byteOffset" : 553352
        },
        {
            "buffer" : 0,
            "byteLength" : 2544,
            "byteOffset" : 559448
        },
        {
            "buffer" : 0,
            "byteLength" : 12336,
            "byteOffset" : 561992
        },
        {
            "buffer" : 0,
            "byteLength" : 12336,
            "byteOffset" : 574328
        },
        {
            "buffer" : 0,
            "byteLength" : 8224,
            "byteOffset" : 586664
        },
        {
            "buffer" : 0,
            "byteLength" : 6960,
            "byteOffset" : 594888
        },
        {
            "buffer" : 0,
            "byteLength" : 1152,
            "byteOffset" : 601848
        },
        {
            "buffer" : 0,
            "byteLength" : 1152,
            "byteOffset" : 603000
        },
        {
            "buffer" : 0,
            "byteLength" : 768,
            "byteOffset" : 604152
        },
        {
            "buffer" : 0,
            "byteLength" : 900,
            "byteOffset" : 604920
        }
    ],
    "buffers" : [
        {
            "byteLength" : 605820,
            "uri" : "data:application/octet-stream;base64,"
        }
    ]
}
