{
    "asset" : {
        "generator" : "Khronos glTF Blender I/O v1.0.5",
        "version" : "2.0"
    },
    "scene" : 0,
    "scenes" : [
        {
            "name" : "Scene",
            "nodes" : [
                0
            ]
        }
    ],
    "nodes" : [
        {
            "mesh" : 0,
            "name" : "Cylinder",
            "rotation" : [
                -0.0005719864857383072,
                -0.6928521990776062,
                0.001119949040003121,
                0.7210785746574402
            ],
            "scale" : [
                0.9999974966049194,
                0.3686581254005432,
                1
            ],
            "translation" : [
                0.08260716497898102,
                0,
                0.08260716497898102
            ]
        }
    ],
    "meshes" : [
        {
            "name" : "Cylinder.004",
            "primitives" : [
                {
                    "attributes" : {
                        "POSITION" : 0,
                        "NORMAL" : 1,
                        "TEXCOORD_0" : 2
                    },
                    "indices" : 3
                }
            ]
        }
    ],
    "accessors" : [
        {
            "bufferView" : 0,
            "componentType" : 5126,
            "count" : 4318,
            "max" : [
                1.056605339050293,
                8.199313163757324,
                1.0563658475875854
            ],
            "min" : [
                -1.0562374591827393,
                -1.1970170736312866,
                -1.0564768314361572
            ],
            "type" : "VEC3"
        },
        {
            "bufferView" : 1,
            "componentType" : 5126,
            "count" : 4318,
            "type" : "VEC3"
        },
        {
            "bufferView" : 2,
            "componentType" : 5126,
            "count" : 4318,
            "type" : "VEC2"
        },
        {
            "bufferView" : 3,
            "componentType" : 5123,
            "count" : 6756,
            "type" : "SCALAR"
        }
    ],
    "bufferViews" : [
        {
            "buffer" : 0,
            "byteLength" : 51816,
            "byteOffset" : 0
        },
        {
            "buffer" : 0,
            "byteLength" : 51816,
            "byteOffset" : 51816
        },
        {
            "buffer" : 0,
            "byteLength" : 34544,
            "byteOffset" : 103632
        },
        {
            "buffer" : 0,
            "byteLength" : 13512,
            "byteOffset" : 138176
        }
    ],
    "buffers" : [
        {
            "byteLength" : 151688,
            "uri" : "data:application/octet-stream;base64,"
        }
    ]
}
