{
    "asset" : {
        "generator" : "Khronos glTF Blender I/O v1.0.5",
        "version" : "2.0"
    },
    "scene" : 0,
    "scenes" : [
        {
            "name" : "Scene",
            "nodes" : [
                0,
                1,
                2,
                3
            ]
        }
    ],
    "nodes" : [
        {
            "name" : "Light",
            "rotation" : [
                0.16907575726509094,
                0.7558803558349609,
                -0.27217137813568115,
                0.570947527885437
            ],
            "translation" : [
                4.076245307922363,
                5.903861999511719,
                -1.0054539442062378
            ]
        },
        {
            "name" : "Camera",
            "rotation" : [
                0.483536034822464,
                0.33687159419059753,
                -0.20870360732078552,
                0.7804827094078064
            ],
            "translation" : [
                7.358891487121582,
                4.958309173583984,
                6.925790786743164
            ]
        },
        {
            "mesh" : 0,
            "name" : "statief",
            "rotation" : [
                0.39090460538864136,
                0.5584197044372559,
                -0.6596922278404236,
                0.3164922297000885
            ],
            "scale" : [
                0.0064530023373663425,
                0.008563965559005737,
                0.21748505532741547
            ],
            "translation" : [
                -0.13567198812961578,
                -0.15363407135009766,
                0.08667244017124176
            ]
        },
        {
            "mesh" : 1,
            "name" : "erlenmeyer",
            "rotation" : [
                0.7071068286895752,
                0,
                0,
                0.7071067094802856
            ],
            "scale" : [
                0.10219404846429825,
                0.10219405591487885,
                0.10219405591487885
            ],
            "translation" : [
                -1.5869736671447754e-05,
                0.15363407135009766,
                7.198378443717957e-05
            ]
        }
    ],
    "materials" : [
        {
            "doubleSided" : true,
            "name" : "Material.001",
            "pbrMetallicRoughness" : {
                "baseColorFactor" : [
                    0.800000011920929,
                    0.800000011920929,
                    0.800000011920929,
                    1
                ],
                "metallicFactor" : 0,
                "roughnessFactor" : 0.5
            }
        }
    ],
    "meshes" : [
        {
            "name" : "Cylinder.006",
            "primitives" : [
                {
                    "attributes" : {
                        "POSITION" : 0,
                        "NORMAL" : 1,
                        "TEXCOORD_0" : 2
                    },
                    "indices" : 3
                }
            ]
        },
        {
            "name" : "Sphere",
            "primitives" : [
                {
                    "attributes" : {
                        "POSITION" : 4,
                        "NORMAL" : 5,
                        "TEXCOORD_0" : 6
                    },
                    "indices" : 7,
                    "material" : 0
                }
            ]
        }
    ],
    "accessors" : [
        {
            "bufferView" : 0,
            "componentType" : 5126,
            "count" : 4472,
            "max" : [
                29.705312728881836,
                35.16060256958008,
                1
            ],
            "min" : [
                -25.412845611572266,
                -1.2021751403808594,
                -1.2665104866027832
            ],
            "type" : "VEC3"
        },
        {
            "bufferView" : 1,
            "componentType" : 5126,
            "count" : 4472,
            "type" : "VEC3"
        },
        {
            "bufferView" : 2,
            "componentType" : 5126,
            "count" : 4472,
            "type" : "VEC2"
        },
        {
            "bufferView" : 3,
            "componentType" : 5123,
            "count" : 4572,
            "type" : "SCALAR"
        },
        {
            "bufferView" : 4,
            "componentType" : 5126,
            "count" : 2543,
            "max" : [
                1.2592333555221558,
                1.227746605873108,
                1.0890694856643677
            ],
            "min" : [
                -1.2592332363128662,
                -1.2907195091247559,
                -3.0960044860839844
            ],
            "type" : "VEC3"
        },
        {
            "bufferView" : 5,
            "componentType" : 5126,
            "count" : 2543,
            "type" : "VEC3"
        },
        {
            "bufferView" : 6,
            "componentType" : 5126,
            "count" : 2543,
            "type" : "VEC2"
        },
        {
            "bufferView" : 7,
            "componentType" : 5123,
            "count" : 2793,
            "type" : "SCALAR"
        }
    ],
    "bufferViews" : [
        {
            "buffer" : 0,
            "byteLength" : 53664,
            "byteOffset" : 0
        },
        {
            "buffer" : 0,
            "byteLength" : 53664,
            "byteOffset" : 53664
        },
        {
            "buffer" : 0,
            "byteLength" : 35776,
            "byteOffset" : 107328
        },
        {
            "buffer" : 0,
            "byteLength" : 9144,
            "byteOffset" : 143104
        },
        {
            "buffer" : 0,
            "byteLength" : 30516,
            "byteOffset" : 152248
        },
        {
            "buffer" : 0,
            "byteLength" : 30516,
            "byteOffset" : 182764
        },
        {
            "buffer" : 0,
            "byteLength" : 20344,
            "byteOffset" : 213280
        },
        {
            "buffer" : 0,
            "byteLength" : 5586,
            "byteOffset" : 233624
        }
    ],
    "buffers" : [
        {
            "byteLength" : 239212,
            "uri" : "data:application/octet-stream;base64,"
        }
    ]
}
