{
    "asset" : {
        "generator" : "Khronos glTF Blender I/O v1.0.5",
        "version" : "2.0"
    },
    "scene" : 0,
    "scenes" : [
        {
            "name" : "Scene",
            "nodes" : [
                0,
                1,
                2,
                3
            ]
        }
    ],
    "nodes" : [
        {
            "name" : "Light",
            "rotation" : [
                0.16907575726509094,
                0.7558803558349609,
                -0.27217137813568115,
                0.570947527885437
            ],
            "translation" : [
                4.076245307922363,
                5.903861999511719,
                -1.0054539442062378
            ]
        },
        {
            "name" : "Camera",
            "rotation" : [
                0.483536034822464,
                0.33687159419059753,
                -0.20870360732078552,
                0.7804827094078064
            ],
            "translation" : [
                7.358891487121582,
                4.958309173583984,
                6.925790786743164
            ]
        },
        {
            "name" : "Empty",
            "rotation" : [
                0.7082793712615967,
                -0.0004572926554828882,
                -0.00029445887776091695,
                0.7059320211410522
            ]
        },
        {
            "mesh" : 0,
            "name" : "Cylinder",
            "scale" : [
                0.016268134117126465,
                0.11899707466363907,
                0.016469983384013176
            ]
        }
    ],
    "meshes" : [
        {
            "name" : "Cylinder",
            "primitives" : [
                {
                    "attributes" : {
                        "POSITION" : 0,
                        "NORMAL" : 1,
                        "TEXCOORD_0" : 2
                    },
                    "indices" : 3
                }
            ]
        }
    ],
    "accessors" : [
        {
            "bufferView" : 0,
            "componentType" : 5126,
            "count" : 4646,
            "max" : [
                1.1654187440872192,
                1.0581432580947876,
                1.1654188632965088
            ],
            "min" : [
                -1.1654189825057983,
                -1.0262527465820312,
                -1.1654188632965088
            ],
            "type" : "VEC3"
        },
        {
            "bufferView" : 1,
            "componentType" : 5126,
            "count" : 4646,
            "type" : "VEC3"
        },
        {
            "bufferView" : 2,
            "componentType" : 5126,
            "count" : 4646,
            "type" : "VEC2"
        },
        {
            "bufferView" : 3,
            "componentType" : 5123,
            "count" : 7194,
            "type" : "SCALAR"
        }
    ],
    "bufferViews" : [
        {
            "buffer" : 0,
            "byteLength" : 55752,
            "byteOffset" : 0
        },
        {
            "buffer" : 0,
            "byteLength" : 55752,
            "byteOffset" : 55752
        },
        {
            "buffer" : 0,
            "byteLength" : 37168,
            "byteOffset" : 111504
        },
        {
            "buffer" : 0,
            "byteLength" : 14388,
            "byteOffset" : 148672
        }
    ],
    "buffers" : [
        {
            "byteLength" : 163060,
            "uri" : "data:application/octet-stream;base64,"
        }
    ]
}
