{
    "asset" : {
        "generator" : "Khronos glTF Blender I/O v1.0.5",
        "version" : "2.0"
    },
    "scene" : 0,
    "scenes" : [
        {
            "name" : "Scene",
            "nodes" : [
                0
            ]
        }
    ],
    "nodes" : [
        {
            "mesh" : 0,
            "name" : "Cube",
            "scale" : [
                0.7489643692970276,
                0.7489643692970276,
                0.7489643692970276
            ],
            "translation" : [
                0,
                0.7292201519012451,
                0.11404211074113846
            ]
        }
    ],
    "meshes" : [
        {
            "name" : "Cube.001",
            "primitives" : [
                {
                    "attributes" : {
                        "POSITION" : 0,
                        "NORMAL" : 1,
                        "TEXCOORD_0" : 2
                    },
                    "indices" : 3
                }
            ]
        }
    ],
    "accessors" : [
        {
            "bufferView" : 0,
            "componentType" : 5126,
            "count" : 4340,
            "max" : [
                2.049304962158203,
                0.9551637768745422,
                1.0578192472457886
            ],
            "min" : [
                -2.049304962158203,
                -0.9206578731536865,
                -0.15862810611724854
            ],
            "type" : "VEC3"
        },
        {
            "bufferView" : 1,
            "componentType" : 5126,
            "count" : 4340,
            "type" : "VEC3"
        },
        {
            "bufferView" : 2,
            "componentType" : 5126,
            "count" : 4340,
            "type" : "VEC2"
        },
        {
            "bufferView" : 3,
            "componentType" : 5123,
            "count" : 7596,
            "type" : "SCALAR"
        }
    ],
    "bufferViews" : [
        {
            "buffer" : 0,
            "byteLength" : 52080,
            "byteOffset" : 0
        },
        {
            "buffer" : 0,
            "byteLength" : 52080,
            "byteOffset" : 52080
        },
        {
            "buffer" : 0,
            "byteLength" : 34720,
            "byteOffset" : 104160
        },
        {
            "buffer" : 0,
            "byteLength" : 15192,
            "byteOffset" : 138880
        }
    ],
    "buffers" : [
        {
            "byteLength" : 154072,
            "uri" : "data:application/octet-stream;base64,"
        }
    ]
}
